# xmcd
#
# Track frame offsets:
#	150
#	15179
#	29098
#	32055
#	46530
#	62083
#	74448
#	88179
#	101562
#	118625
#	133669
#	135450
#
# Disc length: 2230 seconds
#
# Revision: 0
# Processed by: cddbd v1.5.2PL0 Copyright (c) Steve Scherf et al.
# Submitted via: audiograbber 1.83.01
#
DISCID=9d08b40c
DTITLE=Tété - Le Premier Clair De L'aube
DYEAR=2010
DGENRE=Blues
TTITLE0=L'envie Et Le Dédain
TTITLE1=Le Bal Des Boulets
TTITLE2=36'70"
TTITLE3=Maudit Blues
TTITLE4=Les Temps Egarés
TTITLE5=Le Premier Clair De L'aube
TTITLE6=1770
TTITLE7=Doux Mojo
TTITLE8=Ad Libitum
TTITLE9=Petite chanson
TTITLE10=Serendipity 44
TTITLE11=Bye Bye
EXTD=
EXTT0=
EXTT1=
EXTT2=
EXTT3=
EXTT4=
EXTT5=
EXTT6=
EXTT7=
EXTT8=
EXTT9=
EXTT10=
EXTT11=
PLAYORDER=
